<svg width="110" height="34" viewBox="0 0 110 34" fill="none" xmlns="http://www.w3.org/2000/svg">
<g clip-path="url(#clip0_15_6991)">
<g filter="url(#filter0_d_15_6991)">
<path fill-rule="evenodd" clip-rule="evenodd" d="M16.2498 10.5179C12.2556 10.5179 9.01765 13.7558 9.01765 17.75C9.01765 21.7442 12.2556 24.9822 16.2498 24.9822C20.244 24.9822 23.4819 21.7442 23.4819 17.75C23.4819 13.7558 20.244 10.5179 16.2498 10.5179ZM0.981934 17.75C0.981934 9.31783 7.81758 2.48218 16.2498 2.48218C24.682 2.48218 31.5176 9.31783 31.5176 17.75C31.5176 26.1822 24.682 33.0179 16.2498 33.0179C7.81758 33.0179 0.981934 26.1822 0.981934 17.75Z" fill="url(#paint0_angular_15_6991)"/>
</g>
<path d="M52.7148 26H50.1758V22.5625H41.25V26H38.7109V18.998C38.7109 17.9759 38.8867 17.0352 39.2383 16.1758C39.5898 15.3164 40.0781 14.5775 40.7031 13.959C41.3281 13.3405 42.0671 12.8587 42.9199 12.5137C43.7728 12.1686 44.7038 11.9961 45.7129 11.9961H51.4355C51.6113 11.9961 51.7773 12.0286 51.9336 12.0938C52.0898 12.1589 52.2266 12.25 52.3438 12.3672C52.4609 12.4844 52.5521 12.6211 52.6172 12.7773C52.6823 12.9336 52.7148 13.0996 52.7148 13.2754V26ZM41.25 20.0234H50.1758V14.5352H45.7129C45.6348 14.5352 45.4688 14.5482 45.2148 14.5742C44.9674 14.5938 44.6777 14.6491 44.3457 14.7402C44.0202 14.8314 43.6751 14.9714 43.3105 15.1602C42.946 15.349 42.6107 15.6094 42.3047 15.9414C41.9987 16.2734 41.7448 16.6901 41.543 17.1914C41.3477 17.6862 41.25 18.2884 41.25 18.998V20.0234ZM68.3301 14.5352H62.7344V26H60.1953V14.5352H54.5898V11.9961H68.3301V14.5352ZM84.707 20.3359C84.707 21.1888 84.5605 21.9733 84.2676 22.6895C83.9746 23.4056 83.5677 24.0241 83.0469 24.5449C82.526 25.0658 81.9076 25.4727 81.1914 25.7656C80.4818 26.0521 79.707 26.1953 78.8672 26.1953H75.4297C74.5898 26.1953 73.8118 26.0521 73.0957 25.7656C72.3796 25.4727 71.7611 25.0658 71.2402 24.5449C70.7194 24.0241 70.3092 23.4056 70.0098 22.6895C69.7168 21.9733 69.5703 21.1888 69.5703 20.3359V17.6602C69.5703 16.8138 69.7168 16.0326 70.0098 15.3164C70.3092 14.5938 70.7194 13.9753 71.2402 13.4609C71.7611 12.9401 72.3796 12.5332 73.0957 12.2402C73.8118 11.9473 74.5898 11.8008 75.4297 11.8008H78.8672C79.707 11.8008 80.4818 11.9473 81.1914 12.2402C81.9076 12.5332 82.526 12.9401 83.0469 13.4609C83.5677 13.9753 83.9746 14.5938 84.2676 15.3164C84.5605 16.0326 84.707 16.8138 84.707 17.6602V20.3359ZM82.168 17.6602C82.168 17.1589 82.0866 16.7064 81.9238 16.3027C81.7676 15.8926 81.543 15.5443 81.25 15.2578C80.9635 14.9648 80.6152 14.7402 80.2051 14.584C79.8014 14.4212 79.3555 14.3398 78.8672 14.3398H75.4297C74.9349 14.3398 74.4824 14.4212 74.0723 14.584C73.6686 14.7402 73.3203 14.9648 73.0273 15.2578C72.7344 15.5443 72.5065 15.8926 72.3438 16.3027C72.1875 16.7064 72.1094 17.1589 72.1094 17.6602V20.3359C72.1094 20.8372 72.1875 21.293 72.3438 21.7031C72.5065 22.1068 72.7344 22.4551 73.0273 22.748C73.3203 23.0345 73.6686 23.2591 74.0723 23.4219C74.4824 23.5781 74.9349 23.6562 75.4297 23.6562H78.8477C79.3424 23.6562 79.7917 23.5781 80.1953 23.4219C80.6055 23.2591 80.957 23.0345 81.25 22.748C81.543 22.4551 81.7676 22.1068 81.9238 21.7031C82.0866 21.293 82.168 20.8372 82.168 20.3359V17.6602ZM103.516 26H100.957V17.6602L96.4551 25.5801C96.3444 25.7819 96.1882 25.9349 95.9863 26.0391C95.791 26.1432 95.5794 26.1953 95.3516 26.1953C95.1302 26.1953 94.9219 26.1432 94.7266 26.0391C94.5378 25.9349 94.388 25.7819 94.2773 25.5801L89.7559 17.6602V26H87.2168V13.0801C87.2168 12.7871 87.3014 12.5267 87.4707 12.2988C87.6465 12.071 87.8743 11.918 88.1543 11.8398C88.291 11.8073 88.4277 11.7975 88.5645 11.8105C88.7012 11.8171 88.8314 11.8464 88.9551 11.8984C89.0853 11.944 89.2025 12.0124 89.3066 12.1035C89.4108 12.1882 89.4987 12.2923 89.5703 12.416L95.3516 22.4648L101.133 12.416C101.283 12.1686 101.488 11.9928 101.748 11.8887C102.015 11.7845 102.292 11.7682 102.578 11.8398C102.852 11.918 103.076 12.071 103.252 12.2988C103.428 12.5267 103.516 12.7871 103.516 13.0801V26Z" fill="white"/>
</g>
<defs>
<filter id="filter0_d_15_6991" x="-7.05378" y="-5.55354" width="46.6071" height="46.6072" filterUnits="userSpaceOnUse" color-interpolation-filters="sRGB">
<feFlood flood-opacity="0" result="BackgroundImageFix"/>
<feColorMatrix in="SourceAlpha" type="matrix" values="0 0 0 0 0 0 0 0 0 0 0 0 0 0 0 0 0 0 127 0" result="hardAlpha"/>
<feOffset/>
<feGaussianBlur stdDeviation="4.01786"/>
<feColorMatrix type="matrix" values="0 0 0 0 0.2 0 0 0 0 0 0 0 0 0 1 0 0 0 0.23 0"/>
<feBlend mode="normal" in2="BackgroundImageFix" result="effect1_dropShadow_15_6991"/>
<feBlend mode="normal" in="SourceGraphic" in2="effect1_dropShadow_15_6991" result="shape"/>
</filter>
<radialGradient id="paint0_angular_15_6991" cx="0" cy="0" r="1" gradientUnits="userSpaceOnUse" gradientTransform="translate(16.2498 17.75) rotate(90) scale(11.25)">
<stop stop-color="#03C1FD"/>
<stop offset="0.385417" stop-color="#00FFE0"/>
<stop offset="0.75" stop-color="#4B0CFF"/>
<stop offset="1" stop-color="#180858"/>
</radialGradient>
<clipPath id="clip0_15_6991">
<rect width="110" height="34" fill="white"/>
</clipPath>
</defs>
</svg>
